<svg width="507" height="533" viewBox="0 0 507 533" fill="none" xmlns="http://www.w3.org/2000/svg">
    <path fill-rule="evenodd" clip-rule="evenodd" d="M401.978 394.844C402.426 394.935 399.643 421.903 400.05 447.348C400.472 473.528 396.211 516.469 366.388 522.752C341.111 528.077 333.298 503.54 346.289 494.103C358.218 485.44 368.67 458.605 360.506 426.584C360.506 426.584 369.752 383.867 401.978 394.844Z" fill="#E0B40C"/>
    <path fill-rule="evenodd" clip-rule="evenodd" d="M109.627 457.075L35.3569 458.302C35.3569 458.302 5.08554 458.302 3.49046 473.63C1.89832 488.954 13.4178 497.417 27.635 497.538C41.8523 497.662 155.219 495.453 155.219 495.453C155.219 495.453 142.597 461.981 142.104 461.981C141.615 461.981 109.627 457.075 109.627 457.075Z" fill="#E0B40C"/>
    <mask id="mask0_5_259" style="mask-type:alpha" maskUnits="userSpaceOnUse" x="418" y="0" width="89" height="223">
        <path d="M507 0H418.353V222.844H507V0Z" fill="white"/>
    </mask>
    <g mask="url(#mask0_5_259)">
        <path fill-rule="evenodd" clip-rule="evenodd" d="M418.353 212.068C418.353 212.068 439.186 164.982 441.884 119.124C444.579 73.2653 445.561 -6.6847 487.965 0.427402C527.857 7.11768 501.401 142.903 442.474 220.894C442.474 220.894 422.519 228.988 418.353 212.068Z" fill="#EFD638"/>
    </g>
    <path fill-rule="evenodd" clip-rule="evenodd" d="M430.118 367.073C430.118 367.073 342.368 456.828 294.323 484.297C246.279 511.763 216.376 534.324 133.526 532.362C50.6783 530.4 5.65602 533.719 8.51598 501.952C8.88158 497.893 9.9872 492.144 19.7936 490.182C19.7936 490.182 37.4399 486.259 126.662 484.297C126.662 484.297 93.3271 464.188 89.8951 422.498C86.4632 380.807 84.5025 355.792 84.5025 355.792C84.5025 355.792 77.6386 307.235 89.4057 305.273C101.17 303.312 120.29 338.624 120.29 338.624L185.002 341.079C185.002 341.079 203.621 295.955 219.31 296.444C234.998 296.934 228.633 333.229 227.161 348.925C227.161 348.925 275.695 292.521 293.834 270.94C311.973 249.359 350.7 200.311 418.354 212.081C486.006 223.854 483.063 311.648 480.121 333.722C477.181 355.792 470.317 378.353 473.26 396.5C476.199 414.648 484.045 463.695 452.178 507.84C437.687 527.914 425.215 516.666 425.215 516.666C425.215 516.666 410.998 507.84 420.804 488.71C430.608 469.58 438.943 456.828 436.49 435.739C434.04 414.648 422.765 396.5 430.118 367.073Z" fill="#EFD638"/>
    <path fill-rule="evenodd" clip-rule="evenodd" d="M189.037 375.96C189.874 383.193 170.026 383.671 169.967 377.184C169.899 369.757 188.217 368.892 189.037 375.96Z" fill="black"/>
    <path fill-rule="evenodd" clip-rule="evenodd" d="M133.314 375.634C134.151 382.867 114.303 383.345 114.243 376.858C114.176 369.43 132.494 368.566 133.314 375.634Z" fill="black"/>
    <path fill-rule="evenodd" clip-rule="evenodd" d="M153.296 426.759C154.936 426.759 156.513 425.841 157.277 424.266C158.344 422.069 157.43 419.425 155.239 418.355C154.936 418.204 139.967 410.62 138.823 397.11C138.66 395.163 137.239 393.555 135.329 393.154C133.421 392.753 131.469 393.65 130.535 395.363C130.449 395.517 122.102 410.676 112.891 415.862C110.763 417.057 110.008 419.756 111.208 421.886C112.405 424.015 115.106 424.771 117.228 423.573C123.441 420.077 129.004 413.517 132.855 408.139C138.587 419.974 150.725 426.001 151.368 426.313C151.99 426.614 152.648 426.759 153.296 426.759Z" fill="#E0B40C"/>
    <path fill-rule="evenodd" clip-rule="evenodd" d="M144.827 490.35C146.325 490.35 147.702 490.069 148.852 489.833C149.704 489.659 150.479 489.488 151.045 489.509C152.829 489.541 154.436 489.24 155.845 488.957C156.718 488.783 157.541 488.618 158.198 488.591C158.655 488.556 159.507 488.813 160.268 489.022C161.698 489.423 163.479 489.919 165.469 489.707C167.592 489.482 169.29 488.556 170.658 487.81C171.198 487.515 172.014 487.066 172.318 487.016C173.232 486.857 174.137 486.786 175.028 486.709C176.431 486.591 177.882 486.468 179.4 486.108C180.134 485.931 180.854 485.771 181.561 485.618C183.221 485.249 184.822 484.886 186.338 484.426C187.045 484.211 187.962 484.131 188.932 484.046C190.33 483.925 191.913 483.786 193.488 483.193C195.964 482.264 198.302 481.388 200.219 480.512C202.999 479.243 203.996 478.367 205.007 477.358C205.387 476.981 205.614 476.751 206.405 476.27C208.489 474.996 209.147 472.273 207.876 470.187C206.602 468.102 203.881 467.441 201.796 468.715C200.239 469.665 199.47 470.385 198.756 471.096C198.347 471.506 198.102 471.751 196.548 472.462C194.909 473.208 192.709 474.034 190.38 474.91C189.938 475.075 189.036 475.155 188.166 475.232C186.848 475.344 185.356 475.476 183.761 475.96C182.455 476.358 181.078 476.659 179.648 476.975C178.896 477.143 178.132 477.311 177.357 477.497C176.481 477.704 175.408 477.795 174.273 477.892C173.141 477.99 171.988 478.093 170.826 478.294C169.069 478.594 167.601 479.397 166.418 480.04C165.781 480.391 164.909 480.866 164.543 480.904C164.239 480.919 163.263 480.671 162.63 480.494C161.312 480.131 159.663 479.698 157.85 479.748C156.491 479.801 155.223 480.058 154.106 480.282C153.068 480.491 152.095 480.692 151.299 480.662C149.751 480.627 148.33 480.907 147.083 481.164C146.113 481.364 145.187 481.55 144.603 481.491C143.35 481.367 141.991 481.102 140.549 480.819C139.712 480.656 138.871 480.491 138.031 480.35C135.631 479.954 133.34 481.565 132.933 483.975C132.526 486.382 134.148 488.668 136.557 489.075C137.323 489.205 138.087 489.355 138.851 489.503C140.431 489.813 142.064 490.134 143.739 490.296C144.108 490.335 144.47 490.35 144.827 490.35Z" fill="#E0B40C"/>
    <path fill-rule="evenodd" clip-rule="evenodd" d="M10.081 520.249C10.1989 520.249 10.3139 520.246 10.4347 520.234C13.4569 519.998 22.3758 520.163 25.5601 520.249C27.9306 520.319 30.0329 518.387 30.0977 515.942C30.1626 513.496 28.2344 511.464 25.7931 511.399C25.3095 511.387 13.8431 511.086 9.73598 511.414C7.30354 511.605 5.4844 513.735 5.67604 516.172C5.85884 518.49 7.79597 520.249 10.081 520.249Z" fill="#FEF864"/>
    <path fill-rule="evenodd" clip-rule="evenodd" d="M8.51743 506.379C9.08352 506.379 9.66146 506.27 10.2187 506.037C13.5858 504.636 20.9686 505.303 24.8281 506.052C27.2369 506.518 29.5485 504.952 30.0143 502.556C30.4802 500.158 28.9205 497.837 26.5234 497.365C25.235 497.114 13.7332 494.987 6.81326 497.869C4.56067 498.81 3.49336 501.4 4.4339 503.657C5.14152 505.353 6.78671 506.379 8.51743 506.379Z" fill="#FEF864"/>
    <mask id="mask1_5_259" style="mask-type:alpha" maskUnits="userSpaceOnUse" x="0" y="471" width="27" height="12">
        <path d="M26.1758 471.948H-8.2016e-05V482.652H26.1758V471.948Z" fill="white"/>
    </mask>
    <g mask="url(#mask1_5_259)">
        <path fill-rule="evenodd" clip-rule="evenodd" d="M4.42725 482.652C5.19974 482.652 5.98107 482.451 6.69458 482.024C9.18304 480.534 16.8283 480.637 21.2096 481.18C23.645 481.46 25.8416 479.755 26.1423 477.33C26.4401 474.908 24.7212 472.699 22.3005 472.398C19.9831 472.106 8.13046 470.852 2.15402 474.431C0.0577011 475.684 -0.626328 478.401 0.626747 480.498C1.45525 481.885 2.92356 482.652 4.42725 482.652Z" fill="#FEF864"/>
    </g>
    <path fill-rule="evenodd" clip-rule="evenodd" d="M427.762 523.547C428.6 523.547 429.446 523.311 430.198 522.812C435.959 519.001 442.327 509.641 443.035 508.585C444.394 506.556 443.855 503.809 441.826 502.449C439.795 501.081 437.053 501.626 435.688 503.656C434.036 506.116 428.956 513.028 425.318 515.432C423.281 516.78 422.723 519.523 424.068 521.561C424.92 522.851 426.326 523.547 427.762 523.547Z" fill="#FEF864"/>
    <path fill-rule="evenodd" clip-rule="evenodd" d="M417.616 513.395C418.229 513.395 418.851 513.268 419.447 512.994C425.845 510.076 432.673 500.363 433.431 499.262C434.817 497.253 434.313 494.498 432.305 493.112C430.297 491.722 427.543 492.224 426.154 494.236C423.819 497.61 418.94 503.501 415.779 504.944C413.556 505.956 412.577 508.581 413.588 510.805C414.331 512.433 415.935 513.395 417.616 513.395Z" fill="#FEF864"/>
    <path fill-rule="evenodd" clip-rule="evenodd" d="M348.449 525.102C349.195 525.102 349.95 524.913 350.645 524.515C356.566 521.117 366.986 513.952 367.425 513.648C369.436 512.261 369.946 509.506 368.56 507.494C367.177 505.486 364.42 504.969 362.41 506.359C362.304 506.429 351.851 513.621 346.244 516.837C344.127 518.052 343.392 520.757 344.607 522.878C345.427 524.303 346.916 525.102 348.449 525.102Z" fill="#FEF864"/>
    <path fill-rule="evenodd" clip-rule="evenodd" d="M340.325 513.395C341.021 513.395 341.728 513.23 342.386 512.882C347.192 510.342 358.702 504.416 358.702 504.416L354.657 496.546C354.657 496.546 343.085 502.504 338.255 505.056C336.094 506.198 335.268 508.876 336.409 511.035C337.203 512.537 338.736 513.395 340.325 513.395Z" fill="#FEF864"/>
    <path fill-rule="evenodd" clip-rule="evenodd" d="M141.844 395.319C141.995 402.6 124.21 402.142 124.714 395.535C125.306 387.738 141.673 386.962 141.844 395.319Z" fill="#FE5C4F"/>
</svg>
